<svg width="447" height="183" viewBox="0 0 447 183" fill="none" xmlns="http://www.w3.org/2000/svg">
<path d="M90.4216 1.66587C40.4866 1.89916 0.189062 42.575 0.422351 92.51C0.65564 142.445 41.3315 182.743 91.2665 182.509C141.201 182.276 181.499 141.6 181.266 91.6651C181.032 41.7301 140.357 1.43258 90.4216 1.66587Z" fill="white"/>
<path d="M355.573 0.422464C317.917 0.598389 285.755 23.7702 272.304 56.5766C261.592 72.2725 243.617 82.6467 223.163 82.7422C201.784 82.8421 182.971 71.7033 172.318 54.8763C177.485 66.184 180.405 78.7333 180.467 91.9693C180.528 104.974 177.829 117.328 172.936 128.525C183.485 111.841 202.046 100.717 223.247 100.618C243.964 100.521 262.247 110.968 273.064 126.911C287.05 159.042 319.151 181.44 356.418 181.266C406.353 181.033 446.651 140.357 446.417 90.4217C446.184 40.4867 405.508 0.189175 355.573 0.422464Z" fill="white"/>
<path d="M90.1168 9.47267C44.9021 9.68391 8.41377 46.5147 8.625 91.7295C8.83624 136.944 45.6671 173.432 90.8818 173.221C136.097 173.01 172.585 136.179 172.374 90.9645C172.162 45.7497 135.332 9.26144 90.1168 9.47267Z" fill="#76787D" fill-opacity="0.4"/>
<path d="M409.22 61.7475C408.068 59.7047 407.064 57.9327 406.342 56.5671C405.337 54.671 404.434 52.7184 403.622 50.7433C399.615 50.4499 394.92 50.4386 389.48 50.8449C396.996 75.6637 410.044 134.59 377.302 166.948C401.85 159.352 421.341 140.109 429.185 115.595C429.569 97.7398 416.341 74.3431 409.22 61.7475Z" fill="#EC4C60"/>
<path d="M303.424 30.8112C310.885 28.52 323.356 25.9129 336.832 28.4185C346.843 30.2807 354.36 33.8246 359.8 39.2647C363.062 42.5152 365.522 46.3864 367.396 51.1605C373.626 49.8513 379.732 48.8807 385.544 48.2825C374.145 14.5475 354.947 12.5272 354.755 12.5159V12.4934C335.241 12.2902 317.329 19.2201 303.424 30.8112Z" fill="#EC4C60"/>
<path d="M405.657 47.9896C413.738 48.7796 419.133 50.6757 422.598 52.538C416.954 42.6059 409.246 34.017 400.014 27.3693C400.792 31.7823 402.519 39.9198 405.657 47.9896Z" fill="#EC4C60"/>
<path d="M408.916 55.2123C409.627 56.5328 410.609 58.2935 411.76 60.3137C417.934 71.2164 428.543 90.0421 431.376 106.904C432.313 102.186 432.877 97.3444 432.933 92.3784C433.069 80.1891 430.36 68.6657 425.552 58.3048C424.48 57.1084 419.683 52.6277 406.93 51.0589C407.55 52.4697 408.205 53.8579 408.916 55.2123Z" fill="#EC4C60"/>
<path d="M402.434 47.7339C398.665 37.6213 397.084 27.8698 396.689 25.1385C387.254 19.0439 376.442 14.9018 364.794 13.2991C372.006 17.6557 381.656 27.2265 388.518 47.9935C393.8 47.5646 398.416 47.5082 402.434 47.7339Z" fill="#EC4C60"/>
<path d="M326.324 64.1671C338.186 58.9641 351.515 54.6753 364.517 51.7521C361.052 43.197 353.93 34.5629 336.301 31.2786C317.509 27.7798 300.173 34.9241 297.837 35.9399C283.91 50.0027 275.185 69.246 274.948 90.5998C274.892 95.0467 275.298 99.3807 275.964 103.636C285.546 88.0943 302.803 74.4942 326.324 64.1671Z" fill="#EC4C60"/>
<path d="M386.627 51.4797C386.582 51.3443 386.537 51.2314 386.503 51.1073C380.691 51.6716 374.562 52.6422 368.321 53.9402C368.625 54.8769 368.964 55.7573 369.224 56.7617C372.948 71.0052 368.298 86.9867 354.991 105.643C333.683 135.518 319.53 153.339 312.78 158.825C324.53 166.025 338.265 170.325 353.05 170.483C359.325 170.562 365.409 169.817 371.266 168.508C408.015 138.204 394.279 76.6145 386.627 51.4797Z" fill="#EC4C60"/>
<path d="M352.615 103.953C365.391 86.0411 369.895 70.8496 366.396 57.5091C366.136 56.5272 365.843 55.5227 365.515 54.507C352.581 57.385 339.308 61.6512 327.492 66.8317C310.449 74.3146 287.865 87.5196 276.714 107.959C281.059 128.399 293.294 145.938 310.144 157.19C315.867 153.229 330.844 134.482 352.615 103.953Z" fill="#EC4C60"/>
<mask id="mask0_52_2" style="mask-type:luminance" maskUnits="userSpaceOnUse" x="9" y="10" width="163" height="163">
<path d="M9.94305 91.4955C9.94305 142.449 57.0003 182.422 110.033 170.306C139.306 163.622 163.088 139.852 169.76 110.567C181.864 57.5344 141.892 10.489 90.938 10.489C46.2072 10.489 9.94305 46.7529 9.94305 91.4955Z" fill="white"/>
</mask>
<g mask="url(#mask0_52_2)">
<path d="M72.38 114.59L60.9139 79.2941L90.9431 57.4719L120.96 79.2941L109.494 114.59H72.38Z" fill="#202A5D"/>
<path d="M109.494 -0.0721353L120.96 21.077L90.9431 34.149L60.9139 21.077L72.38 -0.0721353H109.494Z" fill="#202A5D"/>
<path d="M9.59483 45.5435L33.2592 41.1743L36.412 73.7659L14.6961 98.2805L-1.87128 80.8392L9.59483 45.5435Z" fill="#202A5D"/>
<path d="M22.1082 154.65L25.2611 130.797L57.2387 137.87L73.8415 166.093L52.1374 176.472L22.1082 154.65Z" fill="#202A5D"/>
<path d="M129.741 176.467L108.025 166.099L124.64 137.877L156.617 130.803L159.77 154.657L129.741 176.467Z" fill="#202A5D"/>
<path d="M183.749 80.8424L167.182 98.2836L145.466 73.7691L148.619 41.1775L172.283 45.5466L183.749 80.8424Z" fill="#202A5D"/>
</g>
</svg>
