<svg width="448" height="183" viewBox="0 0 448 183" fill="none" xmlns="http://www.w3.org/2000/svg">
<path d="M90.4217 1.66581C40.4867 1.8991 0.189123 42.5749 0.422412 92.5099C0.655701 142.445 41.3315 182.742 91.2665 182.509C141.202 182.276 181.499 141.6 181.266 91.6651C181.033 41.7301 140.357 1.43252 90.4217 1.66581Z" fill="#202A5D"/>
<path d="M356.573 0.422342C318.917 0.598267 286.755 23.7701 273.304 56.5765C262.592 72.2723 244.617 82.6465 224.163 82.7421C202.784 82.842 183.971 71.7032 173.318 54.8761C178.485 66.1839 181.405 78.7332 181.467 91.9692C181.528 104.974 178.829 117.328 173.936 128.525C184.485 111.841 203.046 100.717 224.247 100.618C244.964 100.521 263.247 110.968 274.064 126.911C288.05 159.042 320.151 181.44 357.418 181.266C407.353 181.032 447.651 140.357 447.418 90.4216C447.184 40.4866 406.508 0.189053 356.573 0.422342Z" fill="#202A5D"/>
<path d="M410.22 61.7475C409.068 59.7046 408.064 57.9327 407.342 56.567C406.337 54.6709 405.434 52.7184 404.622 50.7432C400.615 50.4498 395.92 50.4385 390.48 50.8448C397.997 75.6636 411.044 134.59 378.302 166.948C402.85 159.352 422.341 140.109 430.185 115.595C430.569 97.7398 417.341 74.3431 410.22 61.7475Z" fill="#76787D"/>
<path d="M304.424 30.8112C311.885 28.52 324.356 25.9129 337.832 28.4185C347.843 30.2807 355.36 33.8246 360.8 39.2647C364.062 42.5152 366.522 46.3864 368.396 51.1605C374.626 49.8513 380.732 48.8807 386.544 48.2825C375.145 14.5475 355.947 12.5272 355.755 12.5159V12.4934C336.241 12.2902 318.329 19.2201 304.424 30.8112Z" fill="#76787D"/>
<path d="M406.657 47.9894C414.738 48.7795 420.133 50.6756 423.598 52.5378C417.955 42.6058 410.246 34.0169 401.014 27.3692C401.792 31.7822 403.519 39.9197 406.657 47.9894Z" fill="#76787D"/>
<path d="M409.916 55.2123C410.627 56.5328 411.609 58.2935 412.76 60.3137C418.934 71.2164 429.543 90.0421 432.376 106.904C433.313 102.186 433.877 97.3444 433.933 92.3784C434.069 80.1891 431.36 68.6657 426.552 58.3048C425.48 57.1084 420.683 52.6277 407.93 51.0589C408.55 52.4697 409.205 53.8579 409.916 55.2123Z" fill="#76787D"/>
<path d="M403.434 47.7338C399.665 37.6212 398.085 27.8698 397.69 25.1385C388.254 19.0438 377.442 14.9017 365.794 13.2991C373.006 17.6556 382.656 27.2265 389.518 47.9934C394.8 47.5645 399.416 47.5081 403.434 47.7338Z" fill="#76787D"/>
<path d="M327.324 64.1671C339.186 58.9641 352.515 54.6753 365.517 51.7521C362.052 43.197 354.93 34.5629 337.301 31.2786C318.509 27.7798 301.173 34.9241 298.837 35.9399C284.91 50.0027 276.185 69.246 275.948 90.5998C275.892 95.0467 276.298 99.3807 276.964 103.636C286.546 88.0943 303.803 74.4942 327.324 64.1671Z" fill="#76787D"/>
<path d="M387.627 51.4797C387.582 51.3442 387.537 51.2314 387.503 51.1072C381.691 51.6715 375.562 52.6422 369.321 53.9401C369.625 54.8769 369.964 55.7572 370.224 56.7617C373.948 71.0051 369.298 86.9866 355.992 105.643C334.683 135.518 320.53 153.339 313.78 158.824C325.53 166.025 339.265 170.325 354.05 170.483C360.326 170.562 366.409 169.817 372.267 168.508C409.015 138.204 395.279 76.6144 387.627 51.4797Z" fill="#76787D"/>
<path d="M353.615 103.953C366.391 86.0411 370.895 70.8496 367.396 57.5091C367.136 56.5272 366.843 55.5227 366.515 54.5069C353.581 57.3849 340.308 61.6512 328.492 66.8316C311.449 74.3145 288.865 87.5196 277.714 107.959C282.059 128.399 294.294 145.938 311.144 157.19C316.867 153.229 331.844 134.482 353.615 103.953Z" fill="#76787D"/>
<mask id="mask0_41_213" style="mask-type:luminance" maskUnits="userSpaceOnUse" x="10" y="10" width="163" height="163">
<path d="M10.9431 91.4955C10.9431 142.449 58.0004 182.421 111.033 170.306C140.306 163.622 164.088 139.852 170.76 110.567C182.864 57.5343 142.892 10.489 91.9381 10.489C47.2073 10.489 10.9431 46.7529 10.9431 91.4955Z" fill="white"/>
</mask>
<g mask="url(#mask0_41_213)">
<path d="M73.3801 114.59L61.914 79.2941L91.9432 57.4719L121.96 79.2941L110.494 114.59H73.3801Z" fill="#EC4C60"/>
<path d="M110.494 -0.0721353L121.96 21.077L91.9431 34.149L61.914 21.077L73.3801 -0.0721353H110.494Z" fill="#EC4C60"/>
<path d="M10.5949 45.5434L34.2592 41.1742L37.4121 73.7658L15.6962 98.2804L-0.871216 80.8392L10.5949 45.5434Z" fill="#EC4C60"/>
<path d="M23.1083 154.65L26.2612 130.797L58.2387 137.87L74.8415 166.093L53.1374 176.472L23.1083 154.65Z" fill="#EC4C60"/>
<path d="M130.741 176.467L109.025 166.099L125.64 137.876L157.618 130.803L160.77 154.656L130.741 176.467Z" fill="#EC4C60"/>
<path d="M184.75 80.8423L168.182 98.2836L146.466 73.769L149.619 41.1774L173.283 45.5466L184.75 80.8423Z" fill="#EC4C60"/>
</g>
</svg>
