<svg width="482" height="512" viewBox="0 0 482 512" fill="none" xmlns="http://www.w3.org/2000/svg">
<path d="M321.024 437H328.31C331.883 437 334.779 434.193 334.779 430.73V422.71C330.939 427.954 326.35 432.776 321.024 437Z" fill="#EC4C60"/>
<path d="M231.147 318.273C196.025 340.525 186.167 386.156 209.132 420.192C213.473 426.628 218.681 432.184 224.504 436.819H320.921C326.247 432.597 330.835 427.774 334.675 422.53V337.295C311.171 305.159 265.457 296.536 231.147 318.273Z" fill="#202A5D"/>
<g filter="url(#filter0_d_36_119)">
<path fill-rule="evenodd" clip-rule="evenodd" d="M216.966 430.441C215.615 428.846 214.61 427.66 211.736 423.347C188.65 388.698 198.562 342.246 233.864 319.597C233.907 319.569 233.951 319.542 233.994 319.514C234.021 319.497 234.049 319.479 234.076 319.462L233.985 319.321C243.176 313.424 253.183 309.742 263.363 308.102L263.401 308.336C281.503 305.462 300.146 309.108 315.736 318.533L315.759 318.493C322.199 322.342 328.152 327.2 333.367 333.057C360.949 364.044 357.456 411.177 325.577 438.326C325.514 438.38 325.45 438.434 325.387 438.488L325.495 438.615C317.196 445.683 307.787 450.68 297.929 453.689L297.869 453.492C270.713 461.782 240.098 454.964 219.696 433.722L220.225 433.215L219.614 433.689C218.442 432.182 217.659 431.258 216.966 430.441ZM220.389 433.057L220.417 433.03C247.898 461.641 294.19 463.742 324.929 437.564C354.479 412.399 359.303 369.85 337.233 339.452L337.104 339.545C313.79 307.27 268.441 298.603 234.404 320.439C199.566 342.79 189.796 388.615 212.568 422.792C215.413 427.061 216.374 428.195 217.705 429.764C218.396 430.578 219.186 431.51 220.389 433.057Z" fill="black"/>
<path fill-rule="evenodd" clip-rule="evenodd" d="M385.009 297.504C378.543 288.882 370.768 283.468 370.768 283.468C361.009 276.029 349.888 270.619 330.356 264.359C291.218 251.814 247.58 257.155 222.322 267.795C219.666 268.915 217.057 270.12 214.488 271.391C206.777 275.207 203.257 277.379 197.386 281.383C148.112 314.985 121.885 378.145 151.822 438.635C151.773 438.664 151.773 438.664 151.773 438.664L151.774 438.665L151.807 438.722L151.905 438.886C151.926 438.922 151.95 438.962 151.976 439.007C152.009 439.062 152.046 439.123 152.086 439.19C152.14 439.281 152.2 439.381 152.266 439.491C152.574 440.001 153.005 440.708 153.499 441.494C154.484 443.059 155.731 444.958 156.75 446.232C156.945 446.476 157.192 446.785 157.481 447.146L157.59 447.282L157.591 447.284C160.3 450.673 166.28 458.155 167.269 459.254C167.83 459.877 168.589 460.637 169.203 461.235C169.512 461.536 169.785 461.798 169.982 461.985C170.048 462.048 170.105 462.102 170.152 462.147L170.214 462.205L170.277 462.264L170.293 462.279L170.297 462.283L170.298 462.284L170.311 462.296L170.323 462.306L170.343 462.282C170.323 462.306 170.323 462.306 170.323 462.306L170.326 462.308L170.931 462.805C171.32 463.123 171.879 463.58 172.559 464.135C173.919 465.245 175.763 466.746 177.702 468.309C181.566 471.426 185.839 474.82 187.363 475.836C188.559 476.633 192.462 478.772 196.031 480.695C197.824 481.661 199.543 482.577 200.813 483.253C201.449 483.59 201.972 483.867 202.337 484.06L202.898 484.357L202.905 484.361L202.907 484.362C202.907 484.362 202.907 484.362 203.14 483.92L202.907 484.362L202.917 484.367C203.436 484.627 205.221 485.383 206.848 486.065C207.668 486.408 208.456 486.735 209.04 486.977C209.331 487.098 209.572 487.197 209.74 487.267L209.997 487.373L210 487.374L210.002 487.375L216.016 489.881C224 494.5 258 503.5 285 503C305.047 502.073 328.671 493.863 343.873 485.862C348.631 483.358 351.89 481.478 353.962 480.222C354.998 479.594 355.738 479.122 356.219 478.806C356.46 478.648 356.637 478.529 356.754 478.449C356.812 478.409 356.856 478.379 356.885 478.359L356.918 478.335L356.919 478.334L356.923 478.332L356.927 478.329L356.93 478.327L356.931 478.326L356.937 478.323L356.989 478.287C357.036 478.256 357.103 478.21 357.191 478.149C357.366 478.029 367.193 469.482 367.512 469.254C368.15 468.797 359.474 476.505 360.512 475.687C362.586 474.053 365.236 471.783 367.512 469.254C439.009 408.882 411.416 326.213 385.009 297.504Z" fill="#EC4C60"/>
</g>
<path d="M205.367 293.074C215.202 307.649 216.002 331.771 209 346.5C214.619 337.967 223.189 328.399 232.5 322.5C241.643 316.706 264.871 308.611 275 307C258.415 307.17 227.692 299.558 217.943 285.106C215.089 280.877 213.019 276.374 211.664 271.755C208.5 260.965 209.33 249.54 213.746 239.425C208.211 247.51 200.934 254.666 192.023 260.312C183.384 265.785 174.022 269.323 164.473 271.058C175.312 271.316 185.945 274.934 194.597 281.603C198.692 284.761 202.346 288.595 205.367 293.074Z" fill="#202A5D"/>
<path d="M230.009 441.882C237.142 447.592 246.596 450.993 256.038 453.616C265.78 456.322 275.683 456.874 285.24 455.573C313.347 451.745 338.439 431.819 347.473 402.998C358.014 369.366 343.209 334.731 313.858 319.298L204.509 408.883C208.717 421.465 219.56 433.516 230.009 441.882Z" fill="#202A5D"/>
<path d="M323.974 325.134C316.702 318.857 308.109 313.868 298.428 310.668C288.438 307.366 278.259 306.285 268.415 307.141C239.463 309.659 213.433 328.995 203.82 358.364C192.602 392.635 204.985 428.017 235 445.5L346.608 359.551C342.421 346.31 334.627 334.332 323.974 325.134Z" fill="#202A5D"/>
<path d="M164.473 271.058C174.021 269.324 183.385 265.785 192.022 260.312C200.934 254.665 208.211 247.51 213.747 239.425C230.027 215.645 231.175 183.792 214.039 158.393C194.042 128.754 155.753 117.693 123 130.02V267.33C136.103 272.236 150.485 273.599 164.473 271.058Z" fill="#202A5D"/>
<path d="M134.225 125.753C125.457 127.768 116.915 131.598 109.103 137.356C101.042 143.298 94.5376 150.714 89.671 159.019C75.3578 183.446 75.2699 215.586 91.8768 240.708C111.256 270.023 146.967 280.102 176.848 266.758L172.653 128.349C160.398 123.771 147.07 122.8 134.225 125.753Z" fill="#202A5D"/>
<defs>
<filter id="filter0_d_36_119" x="135.139" y="257.081" width="281.931" height="253.939" filterUnits="userSpaceOnUse" color-interpolation-filters="sRGB">
<feFlood flood-opacity="0" result="BackgroundImageFix"/>
<feColorMatrix in="SourceAlpha" type="matrix" values="0 0 0 0 0 0 0 0 0 0 0 0 0 0 0 0 0 0 127 0" result="hardAlpha"/>
<feOffset dy="4"/>
<feGaussianBlur stdDeviation="2"/>
<feComposite in2="hardAlpha" operator="out"/>
<feColorMatrix type="matrix" values="0 0 0 0 0 0 0 0 0 0 0 0 0 0 0 0 0 0 0.25 0"/>
<feBlend mode="normal" in2="BackgroundImageFix" result="effect1_dropShadow_36_119"/>
<feBlend mode="normal" in="SourceGraphic" in2="effect1_dropShadow_36_119" result="shape"/>
</filter>
</defs>
</svg>
