<svg width="570" height="574" viewBox="0 0 570 574" fill="none" xmlns="http://www.w3.org/2000/svg">
    <path
        d="M443.957 197.319C374.75 128.112 262.526 128.112 193.319 197.319C124.112 266.526 124.112 378.75 193.319 447.957C262.526 517.164 374.75 517.164 443.957 447.957C513.164 378.75 513.164 266.526 443.957 197.319Z"
        fill="#EC4C60" />
    <path
        d="M191.815 63.9385C156.506 28.6287 99.2483 28.6287 63.9385 63.9385C28.6287 99.2482 28.6287 156.506 63.9385 191.815C99.2483 227.125 156.506 227.125 191.815 191.815C227.125 156.506 227.125 99.2482 191.815 63.9385Z"
        fill="#202A5D" />
    <path
        d="M380.015 252.138C353.388 225.511 314.291 218.971 281.518 232.504C262.829 235.942 242.809 230.473 228.345 216.01C213.228 200.892 207.901 179.688 212.357 160.278C207.96 171.906 201.101 182.813 191.741 192.173C182.545 201.368 171.869 208.146 160.471 212.551C179.748 208.302 200.714 213.659 215.705 228.65C230.354 243.3 235.8 263.64 232.088 282.545C219.105 315.095 225.786 353.663 252.138 380.015C287.448 415.325 344.705 415.325 380.015 380.015C415.325 344.705 415.325 287.448 380.015 252.138Z"
        fill="#202A5D" />
</svg>