<svg id="Calque_1" data-name="Calque 1" xmlns="http://www.w3.org/2000/svg" viewBox="0 0 1080 1080"><defs><style>.cls-1{fill:#ef4c5f;}.cls-2,.cls-4,.cls-5{fill:none;}.cls-2,.cls-4{stroke:#fff;stroke-miterlimit:10;}.cls-3{fill:#212a5d;}.cls-4{stroke-width:7px;}</style></defs><title>terrainet v2</title><path class="cls-1" d="M203.58,717.68l5-21.85H310l-3.31,13.94c-.77,3.13-2.2,5.27-4.31,6.43a15.69,15.69,0,0,1-8.06,1.61Zm49.77,72H223.86l16-67H269Z"/><path class="cls-2" d="M203.58,717.68l5-21.85H310l-3.31,13.94c-.77,3.13-2.2,5.27-4.31,6.43a15.69,15.69,0,0,1-8.06,1.61Zm49.77,72H223.86l16-67H269Z"/><path class="cls-1" d="M399.75,722.63a16.07,16.07,0,0,1,6.62,1.08q2.29,1.06,2.3,4.28a11,11,0,0,1-.43,2.68l-2.88,11.8-3.6,14.87q-1.14,4.7-4.31,6.43a15.68,15.68,0,0,1-8.05,1.61l-50.63.13,1.87-6.83q1.29-4.7,4.39-6.43a15.27,15.27,0,0,1,8-1.61h25.6l2-8.17-46.45.13-7.48,29.75,71.48-.14-2.3,9.38q-1.15,4.7-4.32,6.44a15.66,15.66,0,0,1-8.05,1.6H314.18q-6.62,0-9.71-.33a8.47,8.47,0,0,1-4.53-1.54A4.63,4.63,0,0,1,298.5,784a32.42,32.42,0,0,1,1.3-7.64L308,742.6l3-11.93c.77-3.12,2.18-5.24,4.25-6.36a17,17,0,0,1,8.12-1.68Z"/><path class="cls-2" d="M399.75,722.63a16.07,16.07,0,0,1,6.62,1.08q2.29,1.06,2.3,4.28a11,11,0,0,1-.43,2.68l-2.88,11.8-3.6,14.87q-1.14,4.7-4.31,6.43a15.68,15.68,0,0,1-8.05,1.61l-50.63.13,1.87-6.83q1.29-4.7,4.39-6.43a15.27,15.27,0,0,1,8-1.61h25.6l2-8.17-46.45.13-7.48,29.75,71.48-.14-2.3,9.38q-1.15,4.7-4.32,6.44a15.66,15.66,0,0,1-8.05,1.6H314.18q-6.62,0-9.71-.33a8.47,8.47,0,0,1-4.53-1.54A4.63,4.63,0,0,1,298.5,784a32.42,32.42,0,0,1,1.3-7.64L308,742.6l3-11.93c.77-3.12,2.18-5.24,4.25-6.36a17,17,0,0,1,8.12-1.68Z"/><path class="cls-1" d="M428.94,735.9q1.88-7.36,6.76-10.32t14.39-3h47.74a15.32,15.32,0,0,1,6.62,1.14q2.3,1.14,2.3,4.36a9,9,0,0,1-.29,2.54L503,745.82l-26.75.26h-8.63a36.87,36.87,0,0,0-7.26.54,7.3,7.3,0,0,0-4,2.21,12.2,12.2,0,0,0-2.37,5.43l-8.63,35.37H415.86Z"/><path class="cls-2" d="M428.94,735.9q1.88-7.36,6.76-10.32t14.39-3h47.74a15.32,15.32,0,0,1,6.62,1.14q2.3,1.14,2.3,4.36a9,9,0,0,1-.29,2.54L503,745.82l-26.75.26h-8.63a36.87,36.87,0,0,0-7.26.54,7.3,7.3,0,0,0-4,2.21,12.2,12.2,0,0,0-2.37,5.43l-8.63,35.37H415.86Z"/><path class="cls-1" d="M525.59,735.9q1.86-7.36,6.76-10.32t14.38-3h47.75a15.24,15.24,0,0,1,6.61,1.14q2.31,1.14,2.31,4.36a9,9,0,0,1-.29,2.54l-3.45,15.15-26.75.26h-8.63a37,37,0,0,0-7.27.54,7.27,7.27,0,0,0-4,2.21,12.31,12.31,0,0,0-2.38,5.43L542,789.63H512.5Z"/><path class="cls-2" d="M525.59,735.9q1.86-7.36,6.76-10.32t14.38-3h47.75a15.24,15.24,0,0,1,6.61,1.14q2.31,1.14,2.31,4.36a9,9,0,0,1-.29,2.54l-3.45,15.15-26.75.26h-8.63a37,37,0,0,0-7.27.54,7.27,7.27,0,0,0-4,2.21,12.31,12.31,0,0,0-2.38,5.43L542,789.63H512.5Z"/><path class="cls-1" d="M732,718.41A6.42,6.42,0,0,1,734.7,724a28,28,0,0,1-.86,5.63l-.72,2.82L719.6,789.63H625.26a13.05,13.05,0,0,1-6.55-1.13,4.66,4.66,0,0,1-2.37-4.49,19.94,19.94,0,0,1,.29-2.42l5.75-26.8q1.44-6.56,3.09-9.17a7.58,7.58,0,0,1,5.11-3.35,63.52,63.52,0,0,1,11.79-.74h41.71a16.11,16.11,0,0,1,6.76,1.07c1.44.72,2.15,2.1,2.15,4.15a10.94,10.94,0,0,1-.43,2.82l-2.44,10.32-42.72-.14-2.87,13.13,49.61.14,2.31-9.65h-.15l7.05-28.54H629.43l2.87-10.32q1.31-4.69,4.39-6.43a15.27,15.27,0,0,1,8-1.61h77.66q6.92,0,9.64,1.94"/><path class="cls-2" d="M732,718.41A6.42,6.42,0,0,1,734.7,724a28,28,0,0,1-.86,5.63l-.72,2.82L719.6,789.63H625.26a13.05,13.05,0,0,1-6.55-1.13,4.66,4.66,0,0,1-2.37-4.49,19.94,19.94,0,0,1,.29-2.42l5.75-26.8q1.44-6.56,3.09-9.17a7.58,7.58,0,0,1,5.11-3.35,63.52,63.52,0,0,1,11.79-.74h41.71a16.11,16.11,0,0,1,6.76,1.07c1.44.72,2.15,2.1,2.15,4.15a10.94,10.94,0,0,1-.43,2.82l-2.44,10.32-42.72-.14-2.87,13.13,49.61.14,2.31-9.65h-.15l7.05-28.54H629.43l2.87-10.32q1.31-4.69,4.39-6.43a15.27,15.27,0,0,1,8-1.61h77.66Q729.25,716.47,732,718.41Z"/><path class="cls-1" d="M790.65,722.63l-16.54,67H744.77l16.68-67Zm6.61-26.8-5.32,21.71H762.6l5.47-21.71Z"/><path class="cls-2" d="M790.65,722.63l-16.54,67H744.77l16.68-67Zm6.61-26.8-5.32,21.71H762.6l5.47-21.71Z"/><path class="cls-3" d="M454,930.33l22.58-93.8h29.19l-22.29,93.8Zm120.09-93.8-22.73,93.53.15.27H533.93q-5.32,0-8-2a13.28,13.28,0,0,1-4.32-6.16l-18.84-48,8.49-36.85a9.27,9.27,0,0,1,4.17,2.55,15.27,15.27,0,0,1,2.73,4.69l15.25,39.13,11.21-47.17Z"/><path class="cls-3" d="M681.06,863.33a16.18,16.18,0,0,1,6.61,1.07q2.31,1.08,2.31,4.29a10.63,10.63,0,0,1-.44,2.68l-2.87,11.79L683.07,898c-.77,3.12-2.2,5.27-4.31,6.43a15.69,15.69,0,0,1-8.06,1.61l-50.62.13,1.87-6.83c.86-3.13,2.32-5.27,4.39-6.44a15.27,15.27,0,0,1,8-1.6h25.6l2-8.18-46.45.14L608,913l71.48-.13-2.3,9.38q-1.15,4.69-4.32,6.43a15.65,15.65,0,0,1-8.05,1.61H595.49q-6.62,0-9.71-.34a8.39,8.39,0,0,1-4.53-1.54,4.61,4.61,0,0,1-1.44-3.75,33,33,0,0,1,1.29-7.64l8.2-33.76,3-11.93c.77-3.13,2.18-5.25,4.25-6.37a17.08,17.08,0,0,1,8.12-1.67Z"/><path class="cls-3" d="M787.77,930.33H720q-9.91,0-14.24-3.49t-4.31-10.18a38.62,38.62,0,0,1,1.44-9.11l17.11-71h29.2L733,905.27h60.69Zm-44-40.47,6.47-26.53h38.12l8.91,26.53Z"/><path class="cls-1" d="M516.68,139.25c-14.68-2.84-144.24,4.28-171.95,126.87-11.31,50.05,5.21,108.69,21.78,142.22,99.25,200.91,139.62,242.91,139.62,242.91S657.84,429.48,674.32,335.46c16.44-93.74-43.71-195.92-157.64-196.21"/><path class="cls-2" d="M516.68,139.25c-14.68-2.84-144.24,4.28-171.95,126.87-11.31,50.05,5.21,108.69,21.78,142.22,99.25,200.91,139.62,242.91,139.62,242.91S657.84,429.48,674.32,335.46C690.76,241.72,630.61,139.54,516.68,139.25Z"/><path class="cls-3" d="M798.12,215.87a96.16,96.16,0,0,0-88.4,58.29,63.75,63.75,0,0,1-106.46-.59,96.15,96.15,0,1,0-.07,77.06A63.75,63.75,0,0,1,709.75,350l-.06-.14a96.16,96.16,0,1,0,88.43-134Z"/><path class="cls-4" d="M885.68,312a87.56,87.56,0,1,1-87.56-87.56A87.56,87.56,0,0,1,885.68,312Z"/><line class="cls-4" x1="766.12" y1="229.25" x2="766.12" y2="394.44"/><polyline class="cls-4" points="875 272.86 842.6 272.86 842.6 352.31 874 352.31"/><path class="cls-4" d="M797.92,310.2A32.17,32.17,0,1,1,765.75,278,32.17,32.17,0,0,1,797.92,310.2Z"/><path class="cls-4" d="M842.6,338.74c-13.68,0-24.77-11.84-24.77-26.45"/><path class="cls-4" d="M817.83,312.29c0-14.6,11.09-26.45,24.77-26.45"/><rect class="cls-4" x="430.5" y="293.55" width="55.21" height="36.94"/><circle class="cls-4" cx="485.7" cy="312.01" r="18.77" transform="translate(87.47 729.95) rotate(-79.1)"/><line class="cls-4" x1="560.74" y1="237.28" x2="560.96" y2="386.63"/><path class="cls-4" d="M588.52,311A27.56,27.56,0,1,1,561,283.44,27.55,27.55,0,0,1,588.52,311Z"/><path class="cls-4" d="M515.11,224.46a87.23,87.23,0,0,0-55,19.44,72.86,72.86,0,0,1-1.67,134.85,87.56,87.56,0,1,0,56.68-154.29Z"/><circle class="cls-4" cx="514.76" cy="312.41" r="87.56" transform="translate(-80.37 220.77) rotate(-22.5)"/><rect class="cls-5" width="1080" height="1080"/></svg>