<svg width="1080" height="1080" viewBox="0 0 1080 1080" fill="none" xmlns="http://www.w3.org/2000/svg">
<g clip-path="url(#clip0_15_2)">
<path d="M203.58 717.68L208.58 695.83H310L306.69 709.77C305.92 712.9 304.49 715.04 302.38 716.2C299.884 717.443 297.102 717.999 294.32 717.81L203.58 717.68ZM253.35 789.68H223.86L239.86 722.68H269L253.35 789.68Z" fill="#EF4C5F"/>
<path d="M203.58 717.68L208.58 695.83H310L306.69 709.77C305.92 712.9 304.49 715.04 302.38 716.2C299.884 717.443 297.102 717.999 294.32 717.81L203.58 717.68ZM253.35 789.68H223.86L239.86 722.68H269L253.35 789.68Z" stroke="white" stroke-miterlimit="10"/>
<path d="M399.75 722.63C402.008 722.52 404.264 722.888 406.37 723.71C407.897 724.417 408.663 725.843 408.67 727.99C408.638 728.898 408.493 729.798 408.24 730.67L405.36 742.47L401.76 757.34C401 760.473 399.563 762.617 397.45 763.77C394.957 765.012 392.179 765.568 389.4 765.38L338.77 765.51L340.64 758.68C341.5 755.547 342.963 753.403 345.03 752.25C347.501 750.998 350.267 750.441 353.03 750.64H378.63L380.63 742.47L334.18 742.6L326.7 772.35L398.18 772.21L395.88 781.59C395.113 784.723 393.673 786.87 391.56 788.03C389.067 789.27 386.288 789.822 383.51 789.63H314.18C309.767 789.63 306.53 789.52 304.47 789.3C302.843 789.233 301.271 788.698 299.94 787.76C299.432 787.282 299.039 786.696 298.79 786.045C298.541 785.394 298.441 784.695 298.5 784C298.626 781.411 299.063 778.846 299.8 776.36L308 742.6L311 730.67C311.77 727.55 313.18 725.43 315.25 724.31C317.777 723.088 320.566 722.511 323.37 722.63H399.75Z" fill="#EF4C5F"/>
<path d="M399.75 722.63C402.008 722.52 404.264 722.888 406.37 723.71C407.897 724.417 408.663 725.843 408.67 727.99C408.638 728.898 408.493 729.798 408.24 730.67L405.36 742.47L401.76 757.34C401 760.473 399.563 762.617 397.45 763.77C394.957 765.012 392.179 765.568 389.4 765.38L338.77 765.51L340.64 758.68C341.5 755.547 342.963 753.403 345.03 752.25C347.501 750.998 350.267 750.441 353.03 750.64H378.63L380.63 742.47L334.18 742.6L326.7 772.35L398.18 772.21L395.88 781.59C395.113 784.723 393.673 786.87 391.56 788.03C389.067 789.27 386.288 789.822 383.51 789.63H314.18C309.767 789.63 306.53 789.52 304.47 789.3C302.843 789.233 301.271 788.698 299.94 787.76C299.432 787.282 299.039 786.696 298.79 786.045C298.541 785.394 298.441 784.695 298.5 784C298.626 781.411 299.063 778.846 299.8 776.36L308 742.6L311 730.67C311.77 727.55 313.18 725.43 315.25 724.31C317.777 723.088 320.566 722.511 323.37 722.63H399.75Z" stroke="white" stroke-miterlimit="10"/>
<path d="M428.94 735.9C430.193 730.993 432.447 727.553 435.7 725.58C438.953 723.607 443.75 722.607 450.09 722.58H497.83C500.094 722.466 502.355 722.855 504.45 723.72C505.983 724.48 506.75 725.933 506.75 728.08C506.775 728.936 506.677 729.791 506.46 730.62L503 745.82L476.25 746.08H467.62C465.188 746.02 462.756 746.201 460.36 746.62C458.824 746.91 457.422 747.684 456.36 748.83C455.136 750.418 454.322 752.283 453.99 754.26L445.36 789.63H415.86L428.94 735.9Z" fill="#EF4C5F"/>
<path d="M428.94 735.9C430.193 730.993 432.447 727.553 435.7 725.58C438.953 723.607 443.75 722.607 450.09 722.58H497.83C500.094 722.466 502.355 722.855 504.45 723.72C505.983 724.48 506.75 725.933 506.75 728.08C506.775 728.936 506.677 729.791 506.46 730.62L503 745.82L476.25 746.08H467.62C465.188 746.02 462.756 746.201 460.36 746.62C458.824 746.91 457.422 747.684 456.36 748.83C455.136 750.418 454.322 752.283 453.99 754.26L445.36 789.63H415.86L428.94 735.9Z" stroke="white" stroke-miterlimit="10"/>
<path d="M525.59 735.9C526.83 730.993 529.083 727.553 532.35 725.58C535.617 723.607 540.41 722.607 546.73 722.58H594.48C596.741 722.464 598.999 722.854 601.09 723.72C602.63 724.48 603.4 725.933 603.4 728.08C603.425 728.936 603.327 729.791 603.11 730.62L599.66 745.77L572.91 746.03H564.28C561.845 745.97 559.41 746.151 557.01 746.57C555.474 746.858 554.071 747.633 553.01 748.78C551.786 750.369 550.969 752.233 550.63 754.21L542 789.63H512.5L525.59 735.9Z" fill="#EF4C5F"/>
<path d="M525.59 735.9C526.83 730.993 529.083 727.553 532.35 725.58C535.617 723.607 540.41 722.607 546.73 722.58H594.48C596.741 722.464 598.999 722.854 601.09 723.72C602.63 724.48 603.4 725.933 603.4 728.08C603.425 728.936 603.327 729.791 603.11 730.62L599.66 745.77L572.91 746.03H564.28C561.845 745.97 559.41 746.151 557.01 746.57C555.474 746.858 554.071 747.633 553.01 748.78C551.786 750.369 550.969 752.233 550.63 754.21L542 789.63H512.5L525.59 735.9Z" stroke="white" stroke-miterlimit="10"/>
<path d="M732 718.41C732.886 719.037 733.598 719.879 734.071 720.857C734.543 721.835 734.759 722.916 734.7 724C734.606 725.901 734.317 727.787 733.84 729.63L733.12 732.45L719.6 789.63H625.26C623.016 789.825 620.759 789.436 618.71 788.5C617.923 788.061 617.281 787.403 616.86 786.606C616.439 785.809 616.259 784.907 616.34 784.01C616.387 783.198 616.484 782.39 616.63 781.59L622.38 754.79C623.34 750.417 624.37 747.36 625.47 745.62C626.043 744.738 626.793 743.984 627.673 743.407C628.552 742.831 629.542 742.443 630.58 742.27C634.479 741.658 638.426 741.41 642.37 741.53H684.08C686.384 741.398 688.689 741.763 690.84 742.6C692.28 743.32 692.99 744.7 692.99 746.75C692.97 747.705 692.826 748.653 692.56 749.57L690.12 759.89L647.4 759.75L644.53 772.88L694.14 773.02L696.45 763.37H696.3L703.35 734.83H629.43L632.3 724.51C633.173 721.383 634.637 719.24 636.69 718.08C639.161 716.828 641.927 716.271 644.69 716.47H722.35C726.963 716.47 730.177 717.117 731.99 718.41" fill="#EF4C5F"/>
<path d="M732 718.41C732.886 719.037 733.598 719.879 734.071 720.857C734.543 721.835 734.759 722.916 734.7 724C734.606 725.901 734.317 727.787 733.84 729.63L733.12 732.45L719.6 789.63H625.26C623.016 789.825 620.759 789.436 618.71 788.5C617.923 788.061 617.281 787.403 616.86 786.606C616.439 785.809 616.259 784.907 616.34 784.01C616.387 783.198 616.484 782.39 616.63 781.59L622.38 754.79C623.34 750.417 624.37 747.36 625.47 745.62C626.043 744.738 626.793 743.984 627.673 743.407C628.552 742.831 629.542 742.443 630.58 742.27C634.479 741.658 638.426 741.41 642.37 741.53H684.08C686.384 741.398 688.689 741.763 690.84 742.6C692.28 743.32 692.99 744.7 692.99 746.75C692.97 747.705 692.826 748.653 692.56 749.57L690.12 759.89L647.4 759.75L644.53 772.88L694.14 773.02L696.45 763.37H696.3L703.35 734.83H629.43L632.3 724.51C633.173 721.383 634.637 719.24 636.69 718.08C639.161 716.828 641.927 716.271 644.69 716.47H722.35C726.95 716.47 730.167 717.117 732 718.41Z" stroke="white" stroke-miterlimit="10"/>
<path d="M790.65 722.63L774.11 789.63H744.77L761.45 722.63H790.65ZM797.26 695.83L791.94 717.54H762.6L768.07 695.83H797.26Z" fill="#EF4C5F"/>
<path d="M790.65 722.63L774.11 789.63H744.77L761.45 722.63H790.65ZM797.26 695.83L791.94 717.54H762.6L768.07 695.83H797.26Z" stroke="white" stroke-miterlimit="10"/>
<path d="M454 930.81L476.58 837.01H505.77L483.48 930.81H454ZM574.09 837.01L551.36 930.54L551.51 930.81H533.93C530.383 930.81 527.717 930.143 525.93 928.81C523.926 927.216 522.426 925.077 521.61 922.65L502.77 874.65L511.26 837.8C512.853 838.262 514.293 839.142 515.43 840.35C516.613 841.738 517.537 843.326 518.16 845.04L533.41 884.17L544.62 837L574.09 837.01Z" fill="white"/>
<path d="M681.06 863.81C683.314 863.702 685.565 864.066 687.67 864.88C689.21 865.6 689.98 867.03 689.98 869.17C689.949 870.078 689.801 870.979 689.54 871.85L686.67 883.64L683.07 898.48C682.3 901.6 680.87 903.75 678.76 904.91C676.264 906.153 673.482 906.709 670.7 906.52L620.08 906.65L621.95 899.82C622.81 896.69 624.27 894.55 626.34 893.38C628.812 892.131 631.578 891.578 634.34 891.78H659.94L661.94 883.6L615.49 883.74L608 913.48L679.48 913.35L677.18 922.73C676.413 925.857 674.973 928 672.86 929.16C670.368 930.403 667.589 930.959 664.81 930.77H595.49C591.077 930.77 587.84 930.657 585.78 930.43C584.153 930.367 582.579 929.832 581.25 928.89C580.743 928.414 580.349 927.83 580.1 927.18C579.851 926.531 579.752 925.833 579.81 925.14C579.939 922.551 580.371 919.987 581.1 917.5L589.3 883.74L592.3 871.81C593.07 868.68 594.48 866.56 596.55 865.44C599.078 864.225 601.867 863.651 604.67 863.77L681.06 863.81Z" fill="white"/>
<path d="M787.77 930.33H720C713.393 930.33 708.647 929.167 705.76 926.84C702.873 924.513 701.437 921.12 701.45 916.66C701.564 913.577 702.048 910.518 702.89 907.55L720 836.55H749.2L733 905.27H793.69L787.77 930.33ZM743.77 889.86L750.24 863.33H788.36L797.27 889.86H743.77Z" fill="white"/>
<path d="M516.68 139.25C502 136.41 372.44 143.53 344.73 266.12C333.42 316.17 349.94 374.81 366.51 408.34C465.76 609.25 506.13 651.25 506.13 651.25C506.13 651.25 657.84 429.48 674.32 335.46C690.76 241.72 630.61 139.54 516.68 139.25Z" fill="#EF4C5F"/>
<path d="M516.68 139.25C502 136.41 372.44 143.53 344.73 266.12C333.42 316.17 349.94 374.81 366.51 408.34C465.76 609.25 506.13 651.25 506.13 651.25C506.13 651.25 657.84 429.48 674.32 335.46C690.76 241.72 630.61 139.54 516.68 139.25Z" stroke="white" stroke-miterlimit="10"/>
<path d="M798.12 215.87C779.297 215.868 760.888 221.39 745.174 231.751C729.46 242.113 717.133 256.859 709.72 274.16C703.865 282.939 695.922 290.127 686.603 295.08C677.285 300.032 666.883 302.594 656.331 302.535C645.779 302.477 635.406 299.8 626.143 294.744C616.881 289.689 609.018 282.413 603.26 273.57C594.429 253.33 578.9 236.746 559.283 226.606C539.666 216.466 517.156 213.387 495.536 217.888C473.917 222.389 454.506 234.194 440.565 251.32C426.624 268.447 419.003 289.85 418.983 311.933C418.963 334.016 426.545 355.432 440.455 372.584C454.364 389.735 473.754 401.576 495.365 406.116C516.977 410.656 539.492 407.619 559.128 397.514C578.763 387.41 594.322 370.854 603.19 350.63C608.94 341.763 616.804 334.465 626.075 329.392C635.346 324.32 645.732 321.631 656.3 321.568C666.868 321.506 677.285 324.072 686.615 329.035C695.945 333.997 703.895 341.202 709.75 350L709.69 349.86C716.523 365.823 727.551 379.639 741.603 389.839C755.656 400.04 772.208 406.245 789.503 407.796C806.798 409.347 824.19 406.186 839.833 398.648C855.476 391.11 868.786 379.478 878.351 364.985C887.915 350.492 893.376 333.68 894.155 316.333C894.934 298.986 891.001 281.752 882.774 266.46C874.547 251.169 862.333 238.39 847.428 229.481C832.523 220.572 815.484 215.865 798.12 215.86V215.87Z" fill="white"/>
<path d="M885.68 312C885.68 329.318 880.545 346.247 870.923 360.646C861.302 375.045 847.627 386.268 831.628 392.895C815.628 399.522 798.023 401.256 781.038 397.878C764.053 394.499 748.451 386.16 736.206 373.914C723.96 361.669 715.621 346.067 712.242 329.082C708.864 312.097 710.598 294.492 717.225 278.492C723.852 262.493 735.075 248.818 749.474 239.197C763.873 229.575 780.802 224.44 798.12 224.44C821.342 224.44 843.614 233.665 860.034 250.086C876.455 266.506 885.68 288.778 885.68 312Z" stroke="#202A5D" stroke-width="7" stroke-miterlimit="10"/>
<path d="M766.12 229.25V394.44" stroke="#202A5D" stroke-width="7" stroke-miterlimit="10"/>
<path d="M875 272.86H842.6V352.31H874" stroke="#202A5D" stroke-width="7" stroke-miterlimit="10"/>
<path d="M797.92 310.2C797.914 316.561 796.022 322.778 792.484 328.065C788.945 333.351 783.919 337.47 778.04 339.9C772.161 342.33 765.694 342.963 759.456 341.718C753.217 340.474 747.488 337.407 742.992 332.907C738.496 328.407 735.435 322.675 734.196 316.435C732.957 310.195 733.596 303.729 736.032 297.852C738.467 291.976 742.591 286.953 747.88 283.42C753.17 279.886 759.389 278 765.75 278C769.977 278 774.163 278.833 778.068 280.452C781.973 282.07 785.521 284.443 788.508 287.433C791.496 290.423 793.865 293.973 795.48 297.88C797.095 301.786 797.924 305.973 797.92 310.2Z" stroke="#202A5D" stroke-width="7" stroke-miterlimit="10"/>
<path d="M842.6 338.74C828.92 338.74 817.83 326.9 817.83 312.29" stroke="#202A5D" stroke-width="7" stroke-miterlimit="10"/>
<path d="M817.83 312.29C817.83 297.69 828.92 285.84 842.6 285.84" stroke="#202A5D" stroke-width="7" stroke-miterlimit="10"/>
<path d="M485.71 293.55H430.5V330.49H485.71V293.55Z" stroke="#202A5D" stroke-width="7" stroke-miterlimit="10"/>
<path d="M504.126 315.562C506.086 305.382 499.423 295.541 489.244 293.581C479.065 291.621 469.223 298.284 467.263 308.463C465.303 318.642 471.966 328.483 482.145 330.444C492.325 332.404 502.166 325.741 504.126 315.562Z" stroke="#202A5D" stroke-width="7" stroke-miterlimit="10"/>
<path d="M560.74 237.28L560.96 386.63" stroke="#202A5D" stroke-width="7" stroke-miterlimit="10"/>
<path d="M588.52 311C588.52 316.453 586.903 321.783 583.872 326.316C580.842 330.849 576.536 334.381 571.497 336.466C566.459 338.551 560.916 339.094 555.569 338.027C550.221 336.961 545.311 334.332 541.458 330.474C537.605 326.615 534.983 321.701 533.925 316.352C532.866 311.003 533.417 305.461 535.509 300.425C537.601 295.39 541.14 291.089 545.678 288.065C550.215 285.042 555.547 283.432 561 283.44C568.303 283.448 575.304 286.355 580.465 291.523C585.625 296.691 588.523 303.697 588.52 311Z" stroke="#202A5D" stroke-width="7" stroke-miterlimit="10"/>
<path d="M515.11 224.46C495.089 224.436 475.669 231.3 460.11 243.9C473.426 249.544 484.761 259.023 492.671 271.13C500.582 283.237 504.711 297.424 504.532 311.885C504.353 326.347 499.874 340.428 491.666 352.335C483.457 364.242 471.891 373.438 458.44 378.75C469.185 387.879 481.976 394.277 495.724 397.402C509.473 400.527 523.773 400.286 537.408 396.699C551.044 393.111 563.611 386.285 574.042 376.799C584.473 367.312 592.459 355.448 597.32 342.213C602.182 328.979 603.776 314.766 601.967 300.783C600.157 286.8 594.998 273.461 586.928 261.9C578.857 250.339 568.114 240.898 555.612 234.38C543.11 227.861 529.219 224.458 515.12 224.46H515.11Z" stroke="#202A5D" stroke-width="7" stroke-miterlimit="10"/>
<path d="M548.268 393.304C592.945 374.798 614.161 323.578 595.655 278.901C577.149 234.224 525.93 213.008 481.253 231.514C436.576 250.02 415.36 301.24 433.865 345.917C452.371 390.594 503.591 411.81 548.268 393.304Z" stroke="#202A5D" stroke-width="7" stroke-miterlimit="10"/>
</g>
<defs>
<clipPath id="clip0_15_2">
<rect width="1080" height="1080" fill="white"/>
</clipPath>
</defs>
</svg>
