<svg width="950" height="96" viewBox="0 0 950 96" fill="none" xmlns="http://www.w3.org/2000/svg">
<path d="M197.17 27.8C199.428 27.6903 201.684 28.0584 203.79 28.88C205.317 29.5867 206.083 31.0133 206.09 33.16C206.058 34.0676 205.913 34.9678 205.66 35.84L202.78 47.6399L199.18 62.51C198.42 65.6433 196.983 67.7867 194.87 68.94C192.377 70.1821 189.599 70.7377 186.82 70.55L136.19 70.68L138.06 63.85C138.92 60.7166 140.383 58.5733 142.45 57.42C144.921 56.1675 147.687 55.611 150.45 55.81H176.05L178.05 47.6399L131.6 47.77L124.12 77.52L195.6 77.38L193.3 86.76C192.533 89.8933 191.093 92.04 188.98 93.2C186.487 94.4395 183.708 94.9918 180.93 94.8H111.6C107.187 94.8 103.95 94.69 101.89 94.47C100.263 94.4027 98.6906 93.868 97.36 92.93C96.8524 92.4521 96.4592 91.8658 96.2099 91.2147C95.9605 90.5637 95.8614 89.8647 95.92 89.17C96.0463 86.5805 96.4827 84.0155 97.22 81.53L105.42 47.77L108.42 35.84C109.19 32.72 110.6 30.6 112.67 29.48C115.196 28.2583 117.986 27.6812 120.79 27.8H197.17Z" fill="#EF4C5F" stroke="white" stroke-miterlimit="10"/>
<path d="M226.36 41.07C227.613 36.1633 229.867 32.7233 233.12 30.75C236.373 28.7767 241.17 27.7767 247.51 27.75H295.25C297.514 27.6356 299.775 28.0249 301.87 28.89C303.403 29.65 304.17 31.1033 304.17 33.25C304.195 34.1062 304.097 34.9614 303.88 35.79L300.42 50.99L273.67 51.25H265.04C262.608 51.1901 260.176 51.3709 257.78 51.79C256.244 52.0796 254.842 52.8542 253.78 54C252.556 55.5878 251.742 57.4528 251.41 59.43L242.78 94.8H213.28L226.36 41.07Z" fill="#EF4C5F" stroke="white" stroke-miterlimit="10"/>
<path d="M323.01 41.07C324.25 36.1633 326.503 32.7233 329.77 30.75C333.037 28.7767 337.83 27.7767 344.15 27.75H391.9C394.161 27.6344 396.419 28.0238 398.51 28.8899C400.05 29.6499 400.82 31.1033 400.82 33.25C400.845 34.1061 400.747 34.9614 400.53 35.79L397.08 50.94L370.33 51.2H361.7C359.265 51.1403 356.83 51.3211 354.43 51.74C352.894 52.0275 351.491 52.8025 350.43 53.95C349.206 55.5391 348.389 57.4031 348.05 59.38L339.42 94.8H309.92L323.01 41.07Z" fill="#EF4C5F" stroke="white" stroke-miterlimit="10"/>
<path d="M529.42 23.58C530.306 24.2074 531.018 25.0493 531.491 26.0269C531.963 27.0045 532.179 28.086 532.12 29.17C532.025 31.071 531.737 32.9574 531.26 34.8L530.54 37.62L517.02 94.8H422.68C420.436 94.995 418.179 94.6057 416.13 93.67C415.343 93.2309 414.701 92.573 414.28 91.7761C413.859 90.9792 413.679 90.0774 413.76 89.18C413.807 88.3682 413.904 87.56 414.05 86.76L419.8 59.96C420.76 55.5866 421.79 52.53 422.89 50.79C423.463 49.9076 424.213 49.154 425.093 48.5773C425.972 48.0005 426.962 47.6133 428 47.44C431.899 46.8277 435.846 46.5799 439.79 46.7H481.5C483.804 46.5684 486.109 46.9333 488.26 47.77C489.7 48.49 490.41 49.87 490.41 51.92C490.39 52.8747 490.246 53.8228 489.98 54.74L487.54 65.06L444.82 64.92L441.95 78.05L491.56 78.19L493.87 68.54H493.72L500.77 40H426.85L429.72 29.68C430.593 26.5533 432.057 24.41 434.11 23.25C436.581 21.9976 439.347 21.441 442.11 21.64H519.77C524.37 21.64 527.587 22.2866 529.42 23.58Z" fill="#EF4C5F" stroke="white" stroke-miterlimit="10"/>
<path d="M588.07 27.8L571.53 94.8H542.19L558.87 27.8H588.07ZM594.68 1L589.36 22.71H560.02L565.49 1H594.68Z" fill="#EF4C5F" stroke="white" stroke-miterlimit="10"/>
<path d="M606 95.26L628.58 1.46002H657.77L635.48 95.26H606ZM726.09 1.46002L703.36 94.99L703.51 95.26H685.93C682.383 95.26 679.717 94.5933 677.93 93.26C675.926 91.6661 674.426 89.5268 673.61 87.1L654.77 39.1L663.26 2.25C664.853 2.71163 666.293 3.59224 667.43 4.79999C668.613 6.18779 669.537 7.7762 670.16 9.48999L685.41 48.62L696.62 1.45001L726.09 1.46002Z" fill="white"/>
<path d="M833.06 28.26C835.314 28.1519 837.565 28.5164 839.67 29.33C841.21 30.05 841.98 31.48 841.98 33.62C841.949 34.5285 841.801 35.4292 841.54 36.3L838.67 48.09L835.07 62.93C834.3 66.05 832.87 68.2 830.76 69.36C828.264 70.6033 825.482 71.1591 822.7 70.97L772.08 71.1L773.95 64.27C774.81 61.14 776.27 59 778.34 57.83C780.812 56.581 783.578 56.0279 786.34 56.23H811.94L813.94 48.05L767.49 48.19L760 77.93L831.48 77.8L829.18 87.18C828.413 90.3067 826.973 92.45 824.86 93.61C822.368 94.8534 819.589 95.4092 816.81 95.22H747.49C743.077 95.22 739.84 95.1067 737.78 94.88C736.153 94.8173 734.579 94.2821 733.25 93.34C732.743 92.8641 732.349 92.2795 732.1 91.6301C731.851 90.9806 731.752 90.2832 731.81 89.59C731.939 87.0015 732.371 84.4372 733.1 81.95L741.3 48.19L744.3 36.26C745.07 33.13 746.48 31.01 748.55 29.89C751.078 28.675 753.867 28.1014 756.67 28.22L833.06 28.26Z" fill="white"/>
<path d="M1 22.85L6 1H107.42L104.11 14.94C103.34 18.07 101.91 20.21 99.8 21.37C97.3041 22.6133 94.522 23.1691 91.74 22.98L1 22.85ZM50.77 94.85H21.28L37.28 27.85H66.42L50.77 94.85Z" fill="#EF4C5F" stroke="white" stroke-miterlimit="10"/>
<path d="M939.77 94.78H872C865.393 94.78 860.647 93.6167 857.76 91.29C854.873 88.9634 853.437 85.57 853.45 81.11C853.564 78.0267 854.048 74.9682 854.89 72L872 1H901.2L885 69.72H945.69L939.77 94.78ZM895.77 54.31L902.24 27.78H940.36L949.27 54.31H895.77Z" fill="white"/>
</svg>
